<?xml version="1.0" encoding="UTF-8" standalone="no"?>
<!-- Created with Inkscape (http://www.inkscape.org/) -->

<svg
   width="297mm"
   height="297mm"
   viewBox="0 0 297 297"
   version="1.1"
   id="svg5"
   inkscape:version="1.2.2 (732a01da63, 2022-12-09)"
   sodipodi:docname="logo.svg"
   xmlns:inkscape="http://www.inkscape.org/namespaces/inkscape"
   xmlns:sodipodi="http://sodipodi.sourceforge.net/DTD/sodipodi-0.dtd"
   xmlns="http://www.w3.org/2000/svg"
   xmlns:svg="http://www.w3.org/2000/svg">
  <sodipodi:namedview
     id="namedview7"
     pagecolor="#ffffff"
     bordercolor="#999999"
     borderopacity="1"
     inkscape:showpageshadow="0"
     inkscape:pageopacity="0"
     inkscape:pagecheckerboard="0"
     inkscape:deskcolor="#d1d1d1"
     inkscape:document-units="mm"
     showgrid="false"
     inkscape:zoom="0.74564395"
     inkscape:cx="551.87198"
     inkscape:cy="261.51892"
     inkscape:window-width="1920"
     inkscape:window-height="1017"
     inkscape:window-x="-8"
     inkscape:window-y="-8"
     inkscape:window-maximized="1"
     inkscape:current-layer="layer1" />
  <defs
     id="defs2">
    <rect
       x="553.81709"
       y="85.348525"
       width="481.74501"
       height="199.14656"
       id="rect605" />
    <rect
       x="551.92046"
       y="92.93506"
       width="455.19213"
       height="197.24992"
       id="rect547" />
    <rect
       x="546.23056"
       y="96.728328"
       width="453.2955"
       height="182.07685"
       id="rect487" />
  </defs>
  <g
     inkscape:label="Слой 1"
     inkscape:groupmode="layer"
     id="layer1">
    <g
       id="g896"
       transform="matrix(1.0108981,0,0,0.99998823,-5.3929891,-1.0627539)">
      <rect
         style="fill:#000000;fill-rule:evenodd;stroke-width:1.28121;stroke-linecap:round;stroke-linejoin:bevel;stroke-dashoffset:398.29"
         id="rect346"
         width="161.28049"
         height="301.85675"
         x="136.44783"
         y="1.9711462"
         ry="0.16267595"
         transform="matrix(1,0,-0.23714258,0.97147486,0,0)" />
      <path
         id="path400"
         style="fill:#000000;fill-rule:evenodd;stroke-width:1.17473;stroke-linecap:round;stroke-linejoin:bevel;stroke-dashoffset:398.29"
         d="m 75.394149,124.51279 a 11.90927,10.776159 80.367325 0 0 -0.702045,0.4086 11.90927,10.776159 80.367325 0 0 -3.598142,16.14611 11.90927,10.776159 80.367325 0 0 14.801632,4.56765 l 0.179399,-0.11391 a 11.90927,10.776159 80.367325 0 0 1.038619,-0.77509 l -0.02314,0.015 a 8.5075728,9.1018595 0 0 1 -11.599647,-3.29839 8.5075728,9.1018595 0 0 1 3.026681,-12.42589 8.5075728,9.1018595 0 0 1 11.629014,3.17766 8.5075728,9.1018595 0 0 1 0.97315,2.57165 11.90927,10.776159 80.367325 0 0 -1.591157,-5.45364 11.90927,10.776159 80.367325 0 0 -14.134313,-4.8194 z" />
      <path
         id="path407"
         style="fill:#000000;fill-rule:evenodd;stroke-width:2.58878;stroke-linecap:round;stroke-linejoin:bevel;stroke-dashoffset:398.29"
         d="m 60.914154,104.48059 a 26.171326,23.813919 79.770554 0 0 -1.551703,0.89777 26.171326,23.813919 79.770554 0 0 -7.952833,35.47577 26.171326,23.813919 79.770554 0 0 32.715474,10.03592 l 0.396514,-0.2503 a 26.171326,23.813919 79.770554 0 0 2.295622,-1.703 l -0.05116,0.0329 a 18.803957,19.998344 0 0 1 -25.638248,-7.24712 18.803957,19.998344 0 0 1 6.689757,-27.30181 18.803957,19.998344 0 0 1 25.703157,6.98189 18.803957,19.998344 0 0 1 2.150919,5.65033 26.171326,23.813919 79.770554 0 0 -3.516866,-11.98258 26.171326,23.813919 79.770554 0 0 -31.240518,-10.58905 z" />
      <path
         id="path411"
         style="fill:#000000;fill-rule:evenodd;stroke-width:5.12413;stroke-linecap:round;stroke-linejoin:bevel;stroke-dashoffset:398.29"
         d="m 32.435283,71.820331 a 50.952195,47.92301 73.699976 0 0 -3.128405,1.744614 50.952195,47.92301 73.699976 0 0 -16.033789,68.939495 50.952195,47.92301 73.699976 0 0 65.958002,19.50261 l 0.799417,-0.4864 a 50.952195,47.92301 73.699976 0 0 4.628226,-3.30942 l -0.103165,0.0641 A 37.910849,38.862446 0 0 1 32.866037,144.1921 37.910849,38.862446 0 0 1 46.353324,91.136926 37.910849,38.862446 0 0 1 98.173716,104.70472 37.910849,38.862446 0 0 1 102.51022,115.68491 50.952195,47.92301 73.699976 0 0 95.41983,92.399345 50.952195,47.92301 73.699976 0 0 32.4355,71.821805 Z" />
      <rect
         style="fill:#ffffff;fill-rule:evenodd;stroke-width:0.482671;stroke-linecap:round;stroke-linejoin:bevel;stroke-dashoffset:398.29"
         id="rect413"
         width="131.41982"
         height="52.575474"
         x="153.42424"
         y="24.376289"
         ry="0.028333848"
         transform="matrix(1,0,-0.28062897,0.95981633,0,0)" />
      <rect
         style="fill:#ffffff;fill-rule:evenodd;stroke-width:0.20665;stroke-linecap:round;stroke-linejoin:bevel;stroke-dashoffset:398.29"
         id="rect415"
         width="40.106709"
         height="31.578474"
         x="146.42938"
         y="161.96564"
         ry="0.017018193"
         transform="matrix(1,0,-0.22060485,0.97536327,0,0)" />
      <rect
         style="fill:#ffffff;fill-rule:evenodd;stroke-width:0.20665;stroke-linecap:round;stroke-linejoin:bevel;stroke-dashoffset:398.29"
         id="rect417"
         width="40.106709"
         height="31.578474"
         x="194.06046"
         y="161.96564"
         ry="0.017018193"
         transform="matrix(1,0,-0.22060485,0.97536327,0,0)" />
      <rect
         style="fill:#ffffff;fill-rule:evenodd;stroke-width:0.20665;stroke-linecap:round;stroke-linejoin:bevel;stroke-dashoffset:398.29"
         id="rect419"
         width="40.106709"
         height="31.578474"
         x="242.51274"
         y="161.96564"
         ry="0.017018193"
         transform="matrix(1,0,-0.22060485,0.97536327,0,0)" />
      <rect
         style="fill:#ffffff;fill-rule:evenodd;stroke-width:0.20665;stroke-linecap:round;stroke-linejoin:bevel;stroke-dashoffset:398.29"
         id="rect421"
         width="40.106709"
         height="31.578474"
         x="143.96756"
         y="203.12509"
         ry="0.017018193"
         transform="matrix(1,0,-0.22060485,0.97536327,0,0)" />
      <rect
         style="fill:#ffffff;fill-rule:evenodd;stroke-width:0.20665;stroke-linecap:round;stroke-linejoin:bevel;stroke-dashoffset:398.29"
         id="rect423"
         width="40.106709"
         height="31.578474"
         x="191.59863"
         y="203.12509"
         ry="0.017018193"
         transform="matrix(1,0,-0.22060485,0.97536327,0,0)" />
      <rect
         style="fill:#ffffff;fill-rule:evenodd;stroke-width:0.20665;stroke-linecap:round;stroke-linejoin:bevel;stroke-dashoffset:398.29"
         id="rect425"
         width="40.106709"
         height="31.578474"
         x="240.05092"
         y="203.12509"
         ry="0.017018193"
         transform="matrix(1,0,-0.22060485,0.97536327,0,0)" />
      <rect
         style="fill:#ffffff;fill-rule:evenodd;stroke-width:0.20665;stroke-linecap:round;stroke-linejoin:bevel;stroke-dashoffset:398.29"
         id="rect427"
         width="40.106709"
         height="31.578474"
         x="143.12468"
         y="244.79904"
         ry="0.017018193"
         transform="matrix(1,0,-0.22060485,0.97536327,0,0)" />
      <rect
         style="fill:#ffffff;fill-rule:evenodd;stroke-width:0.20665;stroke-linecap:round;stroke-linejoin:bevel;stroke-dashoffset:398.29"
         id="rect429"
         width="40.106709"
         height="31.578474"
         x="190.75575"
         y="244.79904"
         ry="0.017018193"
         transform="matrix(1,0,-0.22060485,0.97536327,0,0)" />
      <rect
         style="fill:#ffffff;fill-rule:evenodd;stroke-width:0.20665;stroke-linecap:round;stroke-linejoin:bevel;stroke-dashoffset:398.29"
         id="rect431"
         width="40.106709"
         height="31.578474"
         x="239.20804"
         y="244.79904"
         ry="0.017018193"
         transform="matrix(1,0,-0.22060485,0.97536327,0,0)" />
      <text
         xml:space="preserve"
         transform="scale(0.26458333)"
         id="text485"
         style="font-style:normal;font-variant:normal;font-weight:normal;font-stretch:normal;font-size:32px;font-family:Georgia;-inkscape-font-specification:Georgia;white-space:pre;shape-inside:url(#rect487);fill:#ffffff;fill-rule:evenodd;stroke-width:6.5348;stroke-linecap:round;stroke-linejoin:bevel;stroke-dashoffset:398.29" />
      <text
         xml:space="preserve"
         style="font-style:normal;font-variant:normal;font-weight:normal;font-stretch:normal;font-size:8.46667px;font-family:Georgia;-inkscape-font-specification:Georgia;fill:#ffffff;fill-rule:evenodd;stroke-width:1.729;stroke-linecap:round;stroke-linejoin:bevel;stroke-dashoffset:398.29"
         x="179.14893"
         y="40.145416"
         id="text493"><tspan
           sodipodi:role="line"
           id="tspan491"
           style="stroke-width:1.729"
           x="179.14893"
           y="40.145416">sada</tspan></text>
      <text
         xml:space="preserve"
         transform="scale(0.26458333)"
         id="text545"
         style="font-style:normal;font-variant:normal;font-weight:normal;font-stretch:normal;font-size:32px;font-family:Georgia;-inkscape-font-specification:Georgia;white-space:pre;shape-inside:url(#rect547);fill:#000000;fill-rule:evenodd;stroke-width:6.5348;stroke-linecap:round;stroke-linejoin:bevel;stroke-dashoffset:398.29" />
      <text
         xml:space="preserve"
         transform="matrix(0.26458333,0,-0.43633636,1.2247129,50.811755,-90.827816)"
         id="text603"
         style="font-style:normal;font-variant:normal;font-weight:normal;font-stretch:normal;font-size:48px;font-family:Georgia;-inkscape-font-specification:Georgia;white-space:pre;shape-inside:url(#rect605);fill:#000000;fill-rule:evenodd;stroke-width:6.5348;stroke-linecap:round;stroke-linejoin:bevel;stroke-dashoffset:398.29"
         inkscape:transform-center-x="-21.333998"
         inkscape:transform-center-y="-48.77947"><tspan
           x="553.81641"
           y="128.65423"
           id="tspan930">ДОМОФОНОВ.NET</tspan></text>
      <path
         id="path310"
         style="fill:none;fill-rule:evenodd;stroke:#000000;stroke-width:4.90235;stroke-linecap:round;stroke-linejoin:bevel;stroke-dashoffset:398.29;stroke-opacity:1"
         d="m 37.135955,76.689226 a 48.292431,46.28024 64.544908 0 0 -3.030331,1.648542 48.292431,46.28024 64.544908 0 0 -15.531139,65.143132 48.292431,46.28024 64.544908 0 0 63.890258,18.42863 l 0.774355,-0.45961 a 48.292431,46.28024 64.544908 0 0 4.483134,-3.12717 l -0.09993,0.0605 A 36.722367,36.722367 0 0 1 37.553205,145.07562 36.722367,36.722367 0 0 1 50.617674,94.942094 36.722367,36.722367 0 0 1 100.81353,107.76273 36.722367,36.722367 0 0 1 105.01409,118.13827 48.292431,46.28024 64.544908 0 0 98.145974,96.134994 48.292431,46.28024 64.544908 0 0 37.136165,76.690619 Z" />
      <path
         id="path312"
         style="fill:none;fill-rule:evenodd;stroke:#000000;stroke-width:2.37029;stroke-linecap:round;stroke-linejoin:bevel;stroke-dashoffset:398.29;stroke-opacity:1"
         d="m 63.578492,109.31767 a 23.349432,22.376536 64.544908 0 0 -1.465167,0.79707 23.349432,22.376536 64.544908 0 0 -7.509319,31.49675 23.349432,22.376536 64.544908 0 0 30.890994,8.91027 l 0.374402,-0.22222 a 23.349432,22.376536 64.544908 0 0 2.167599,-1.51199 l -0.04831,0.0292 a 17.755296,17.755296 0 0 1 -24.208451,-6.43427 17.755296,17.755296 0 0 1 6.316682,-24.23959 17.755296,17.755296 0 0 1 24.26974,6.19878 17.755296,17.755296 0 0 1 2.030967,5.01658 23.349432,22.376536 64.544908 0 0 -3.320737,-10.63859 23.349432,22.376536 64.544908 0 0 -29.498294,-9.40137 z" />
      <path
         id="path314"
         style="fill:none;fill-rule:evenodd;stroke:#000000;stroke-width:1.03872;stroke-linecap:round;stroke-linejoin:bevel;stroke-dashoffset:398.29;stroke-opacity:1"
         d="m 76.96469,127.58598 a 10.183723,9.8527249 45.522085 0 0 -0.650547,0.34475 10.183723,9.8527249 45.522085 0 0 -3.334201,13.62286 10.183723,9.8527249 45.522085 0 0 13.715863,3.85383 l 0.166239,-0.0961 a 10.183723,9.8527249 45.522085 0 0 0.962432,-0.65396 l -0.02144,0.0127 a 7.883503,7.6794543 0 0 1 -10.748759,-2.78292 7.883503,7.6794543 0 0 1 2.80466,-10.48402 7.883503,7.6794543 0 0 1 10.775972,2.68107 7.883503,7.6794543 0 0 1 0.901765,2.16976 10.183723,9.8527249 45.522085 0 0 -1.474438,-4.60136 10.183723,9.8527249 45.522085 0 0 -13.097496,-4.06625 z" />
      <rect
         style="fill:none;fill-rule:evenodd;stroke:#000000;stroke-width:1.28121;stroke-linecap:round;stroke-linejoin:bevel;stroke-dashoffset:398.29;stroke-opacity:1"
         id="rect870"
         width="161.28049"
         height="301.85675"
         x="138.65511"
         y="3.7974348"
         ry="0.16267595"
         transform="matrix(1,0,-0.23714258,0.97147486,0,0)" />
    </g>
  </g>
</svg>
